<svg width="40" height="40" viewBox="0 0 40 40" fill="none" xmlns="http://www.w3.org/2000/svg">
<path d="M20 3.33325C22.8556 3.33314 25.6518 4.14811 28.0601 5.6824C30.4685 7.21669 32.3888 9.40654 33.5955 11.9946C34.8022 14.5827 35.2451 17.4614 34.8721 20.2925C34.4991 23.1236 33.3258 25.7894 31.49 27.9766C33.5817 29.3599 34.8783 31.1266 34.9917 33.0582L35 33.3333L20 36.6666L5.00002 33.3333L5.00835 33.0582C5.12002 31.1249 6.41835 29.3583 8.50835 27.9749C6.23752 25.2759 4.99476 21.8605 5.00002 18.3333C5.00002 14.355 6.58037 10.5397 9.39341 7.72665C12.2065 4.9136 16.0218 3.33325 20 3.33325V3.33325ZM20 21.6666C17.7 21.6666 15.8333 22.7866 15.8333 24.1666C15.8333 25.5466 17.7 26.6666 20 26.6666C22.3 26.6666 24.1667 25.5466 24.1667 24.1666C24.1667 22.7866 22.3 21.6666 20 21.6666ZM15 13.3333C13.1583 13.3333 11.6667 14.4533 11.6667 15.8333C11.6667 17.2133 13.1583 18.3333 15 18.3333C16.8417 18.3333 18.3333 17.2133 18.3333 15.8333C18.3333 14.4533 16.8417 13.3333 15 13.3333ZM25 13.3333C23.1583 13.3333 21.6667 14.4533 21.6667 15.8333C21.6667 17.2133 23.1583 18.3333 25 18.3333C26.8417 18.3333 28.3333 17.2133 28.3333 15.8333C28.3333 14.4533 26.8417 13.3333 25 13.3333Z" fill="black"/>
</svg>
