<svg width="40" height="40" viewBox="0 0 40 40" fill="none" xmlns="http://www.w3.org/2000/svg">
<path d="M20 2.5C10.3359 2.5 2.5 10.3359 2.5 20C2.5 29.6641 10.3359 37.5 20 37.5C29.6641 37.5 37.5 29.6641 37.5 20C37.5 10.3359 29.6641 2.5 20 2.5ZM20 34.5312C11.9766 34.5312 5.46875 28.0234 5.46875 20C5.46875 11.9766 11.9766 5.46875 20 5.46875C28.0234 5.46875 34.5312 11.9766 34.5312 20C34.5312 28.0234 28.0234 34.5312 20 34.5312ZM21.8633 19.0937L20.8711 18.8633V13.6172C22.3555 13.8203 23.2734 14.75 23.4297 15.8906C23.4492 16.0469 23.582 16.1602 23.7383 16.1602H25.4922C25.6758 16.1602 25.8203 16 25.8047 15.8164C25.5664 13.3828 23.5625 11.8203 20.8867 11.5508V10.2734C20.8867 10.1016 20.7461 9.96094 20.5742 9.96094H19.4766C19.3047 9.96094 19.1641 10.1016 19.1641 10.2734V11.5625C16.3984 11.832 14.2344 13.3594 14.2344 16.2109C14.2344 18.8516 16.1797 20.125 18.2227 20.6133L19.1875 20.8594V26.4336C17.4609 26.2031 16.4922 25.2813 16.293 24.0391C16.2695 23.8906 16.1367 23.7812 15.9844 23.7812H14.1797C13.9961 23.7812 13.8516 23.9375 13.8672 24.1211C14.043 26.2695 15.6719 28.2461 19.1484 28.5V29.7266C19.1484 29.8984 19.2891 30.0391 19.4609 30.0391H20.5703C20.7422 30.0391 20.8828 29.8984 20.8828 29.7227L20.875 28.4844C23.9336 28.2148 26.1211 26.5781 26.1211 23.6406C26.1172 20.9297 24.3945 19.7187 21.8633 19.0937V19.0937ZM19.1836 18.4609C18.9648 18.3984 18.7813 18.3398 18.5977 18.2656C17.2773 17.7891 16.6641 17.0195 16.6641 16.0273C16.6641 14.6094 17.7383 13.8008 19.1836 13.6172V18.4609ZM20.8711 26.4453V21.2227C20.9922 21.2578 21.1016 21.2852 21.2148 21.3086C23.0625 21.8711 23.6836 22.6523 23.6836 23.8516C23.6836 25.3789 22.5352 26.2969 20.8711 26.4453Z" fill="white"/>
</svg>
