<svg width="40" height="40" viewBox="0 0 40 40" fill="none" xmlns="http://www.w3.org/2000/svg">
<path d="M34.0681 19.3731C35.4994 18.2625 36.7037 16.7438 37.0056 14.9625C37.8512 14.8256 38.75 14.2663 38.75 12.5125C38.75 10.9613 38.1913 10.4981 37.7213 10.385C37.6719 4.02875 36.1713 1.31812 29.4469 1.2525C22.6638 1.18562 20.8781 4.01313 20.8137 10.4613C20.4037 10.6619 20 11.1925 20 12.5125C20 14.2669 20.8981 14.8263 21.7431 14.9625C22.0419 16.7225 23.2219 18.2269 24.6312 19.3338C21.83 19.7137 20 20.2338 20 21.7344V10.42C20 2.67125 14.9244 2.81625 14.9244 2.81625C14.9244 2.81625 14.5431 1.25 10.6263 1.25C4.56 1.25 1.25 5.2075 1.25 10.42V38.75H38.75V21.7344C38.75 20.5719 36.7606 19.7844 34.0681 19.3731ZM22.3075 14.6413L22.2769 14.3881L22.0294 14.3687C21.0569 14.2944 20.6044 13.7044 20.6044 12.5125C20.6044 11.4919 20.8419 10.9756 21.31 10.9756C21.3381 10.9756 21.3663 10.9769 21.3956 10.9794C21.4569 11.3506 21.53 11.6194 21.6188 11.7988C21.8363 12.235 22.2481 12.4738 22.295 12.5L22.8181 12.7919L22.7381 12.1825C22.6759 11.6141 22.6557 11.042 22.6775 10.4706C22.8763 7.33125 23.0675 6.91188 23.72 6.91188C24.0187 6.91188 24.4287 6.99875 24.9487 7.1075C25.9656 7.32062 27.3575 7.61312 29.3744 7.61312C31.3913 7.61312 32.7831 7.32062 33.7994 7.1075C34.3194 6.99812 34.73 6.91188 35.0288 6.91188C35.6813 6.91188 35.8719 7.33187 36.0706 10.4694C36.105 11.4569 36.0106 12.175 36.0094 12.1819L35.9275 12.7937L36.4531 12.4994C36.4994 12.4738 36.9094 12.235 37.1287 11.7981C37.2169 11.6213 37.29 11.3519 37.3519 10.9794C37.8838 10.9219 38.1444 11.4319 38.1444 12.5125C38.1444 13.7038 37.6913 14.2944 36.7181 14.3687L36.4706 14.3881L36.44 14.6413C35.9888 18.3525 31.2525 20.7056 29.3738 20.7056C27.4956 20.7056 22.7588 18.3525 22.3075 14.6413M13.8456 32.1775C13.2919 32.1775 13.1438 31.6831 13.1438 31.3913C13.1438 31.0994 13.2919 30.6037 13.8456 30.6037H14.13L14.4119 27.4944C14.4119 27.105 14.5338 26.9075 15.2031 26.9075C15.65 26.9075 16.235 27.005 16.9131 27.1187C17.8394 27.2725 18.89 27.4469 20 27.4469C21.11 27.4469 22.1606 27.2725 23.0875 27.1187C23.7656 27.005 24.3513 26.9075 24.7994 26.9075C25.4681 26.9075 25.5912 27.105 25.5919 27.5225L25.87 30.6037H26.155C26.7087 30.6037 26.8569 31.0994 26.8569 31.3913C26.8569 31.6831 26.7087 32.1775 26.155 32.1775H25.8425V32.49C25.8425 34.9744 22.3819 36.5587 19.9994 36.5587C17.6169 36.5587 14.1562 34.9744 14.1562 32.49V32.1775H13.8456ZM3.4325 10.7581C6.83437 10.72 11.9113 6.9975 13.185 6.02188C13.785 7.06 15.7638 10.2369 17.7794 10.7531C17.7875 10.7544 18.6081 10.9219 18.6081 12.3588C18.6081 14.1331 17.4463 14.4606 17.3994 14.4738L17.1625 14.5319L17.1613 14.7756C17.1438 17.775 13.0131 20.7044 10.6256 20.7044C8.26375 20.7044 4.03625 17.7175 4.03625 14.7769L4.03313 14.5387L3.80375 14.475C3.75687 14.4619 2.6425 14.1338 2.6425 12.3588C2.6425 11.1381 3.28563 10.8156 3.4325 10.7581M1.88562 38.125V21.7331C1.88562 21.0119 3.74188 20.2575 6.76063 19.8888C8.05625 20.7744 9.49563 21.3287 10.6263 21.3287C11.7575 21.3287 13.2056 20.7625 14.5037 19.8544C17.6981 20.2081 19.6775 20.9881 19.6775 21.7325V22.51C15.665 22.6294 13.2044 24.9381 13.2044 27.7956V29.7669C13.2044 29.8962 13.2119 30.0169 13.2225 30.1319C12.7625 30.3762 12.5206 30.8837 12.5206 31.3906C12.5206 32.0056 12.8719 32.6281 13.5469 32.7712C13.6425 33.8931 14.3081 34.8319 15.2344 35.5531C13.7088 36.1062 12.5769 36.9606 12.275 38.1238H1.88562V38.125ZM12.9163 38.125C13.2538 37.1531 14.3819 36.4406 15.8575 35.99C17.1206 36.7587 18.6856 37.1837 20.0006 37.1837C21.3144 37.1837 22.8788 36.76 24.14 35.9925C25.615 36.4431 26.7462 37.1544 27.0837 38.125H12.9163ZM38.1144 38.125H27.7256C27.425 36.9619 26.295 36.105 24.77 35.5531C25.6944 34.8319 26.3594 33.8931 26.455 32.7725C27.13 32.6294 27.4819 32.0069 27.4819 31.3919C27.4819 30.8863 27.2406 30.3812 26.7844 30.1356C26.795 30.0206 26.8 29.8988 26.8 29.7681V27.7969C26.8 24.9419 24.2112 22.6344 20.3231 22.5113V21.8762C20.3231 20.9519 22.2506 20.2238 25.3719 19.8688C26.7863 20.7963 28.3112 21.3306 29.375 21.3306C30.4281 21.3306 31.9319 20.8081 33.3331 19.8987C36.2988 20.2712 38.1144 21.02 38.1144 21.7344V38.125" fill="black"/>
<path d="M25.9375 14.0994C26.7142 14.0994 27.3438 13.4698 27.3438 12.6931C27.3438 11.9165 26.7142 11.2869 25.9375 11.2869C25.1608 11.2869 24.5312 11.9165 24.5312 12.6931C24.5312 13.4698 25.1608 14.0994 25.9375 14.0994Z" fill="black"/>
<path d="M32.8125 14.0994C33.5892 14.0994 34.2188 13.4698 34.2188 12.6931C34.2188 11.9165 33.5892 11.2869 32.8125 11.2869C32.0358 11.2869 31.4062 11.9165 31.4062 12.6931C31.4062 13.4698 32.0358 14.0994 32.8125 14.0994Z" fill="black"/>
<path d="M31.8339 17.2855C31.9514 17.0693 31.7945 16.8362 31.6214 16.9705C30.1739 18.0962 28.567 18.0887 27.1282 16.9705C26.9551 16.8362 26.7989 17.0693 26.9157 17.2855C27.3551 18.0887 28.2414 18.8068 29.3745 18.8068C30.5082 18.8062 31.3939 18.0887 31.8339 17.2855" fill="black"/>
<path d="M7.27051 14.0986C8.04716 14.0986 8.67676 13.469 8.67676 12.6924C8.67676 11.9157 8.04716 11.2861 7.27051 11.2861C6.49386 11.2861 5.86426 11.9157 5.86426 12.6924C5.86426 13.469 6.49386 14.0986 7.27051 14.0986Z" fill="black"/>
<path d="M13.9807 14.0986C14.7574 14.0986 15.387 13.469 15.387 12.6924C15.387 11.9157 14.7574 11.2861 13.9807 11.2861C13.2041 11.2861 12.5745 11.9157 12.5745 12.6924C12.5745 13.469 13.2041 14.0986 13.9807 14.0986Z" fill="black"/>
<path d="M8.16618 17.2843C8.60555 18.0874 9.4918 18.8056 10.6249 18.8056C11.7587 18.8056 12.6449 18.0881 13.0849 17.2843C13.2024 17.0681 13.0456 16.8349 12.8724 16.9693C11.4249 18.0949 9.81805 18.0874 8.3793 16.9693C8.2043 16.8349 8.04805 17.0681 8.16618 17.2843Z" fill="black"/>
<path d="M17.0174 32.2155C17.6212 32.2155 18.1106 31.7261 18.1106 31.1224C18.1106 30.5187 17.6212 30.0293 17.0174 30.0293C16.4137 30.0293 15.9243 30.5187 15.9243 31.1224C15.9243 31.7261 16.4137 32.2155 17.0174 32.2155Z" fill="black"/>
<path d="M22.9837 32.2155C23.5875 32.2155 24.0769 31.7261 24.0769 31.1224C24.0769 30.5187 23.5875 30.0293 22.9837 30.0293C22.38 30.0293 21.8906 30.5187 21.8906 31.1224C21.8906 31.7261 22.38 32.2155 22.9837 32.2155Z" fill="black"/>
<path d="M17.8537 34.2394C18.2375 34.9081 19.0106 35.5062 20.0006 35.5062C20.9906 35.5062 21.7631 34.9081 22.1481 34.2394C22.25 34.0587 22.1137 33.8644 21.9625 33.9769C20.7056 34.9081 19.3031 34.9144 18.0406 33.9769C17.8875 33.865 17.7518 34.0587 17.8537 34.2394" fill="black"/>
</svg>
