<svg width="40" height="40" viewBox="0 0 40 40" fill="none" xmlns="http://www.w3.org/2000/svg">
<path d="M13.3333 9.99992C13.3333 6.31659 16.3166 3.33325 19.9999 3.33325C23.6833 3.33325 26.6666 6.31659 26.6666 9.99992C26.6666 13.6833 23.6833 16.6666 19.9999 16.6666C16.3166 16.6666 13.3333 13.6833 13.3333 9.99992ZM28.3333 36.6666H29.9999C31.8333 36.6666 33.3333 35.1666 33.3333 33.3333V25.3666C33.3333 23.4999 32.3166 21.7833 30.6499 20.9333C29.9333 20.5666 29.1499 20.2166 28.3333 19.8999V36.6666ZM20.5666 28.3333L24.9999 18.8833C23.4499 18.5333 21.7833 18.3333 19.9999 18.3333C15.7833 18.3333 12.1499 19.4999 9.34995 20.9333C8.53671 21.3521 7.85545 21.9881 7.38178 22.7707C6.90811 23.5533 6.66056 24.4518 6.66661 25.3666V36.6666H10.5666C10.1999 35.9166 9.99995 35.0666 9.99995 34.1666C9.99995 30.9499 12.6166 28.3333 15.8333 28.3333H20.5666ZM16.6666 36.6666L19.0166 31.6666H15.8333C14.4499 31.6666 13.3333 32.7833 13.3333 34.1666C13.3333 35.5499 14.4499 36.6666 15.8333 36.6666H16.6666Z" fill="black"/>
</svg>
